<?xml version="1.0" encoding="UTF-8"?> <svg xmlns="http://www.w3.org/2000/svg" viewBox="0 0 76 22" id="svg3328465098"><g transform="translate(-0 0)" id="ss3328465098_1"><path d="M 0 0 L 76 0 L 76 22 L 0 22 Z" fill="transparent"></path><path d="M 46.858 21.114 C 46.858 21.419 47.132 21.694 47.437 21.694 L 50.032 21.694 C 50.337 21.694 50.612 21.419 50.612 21.114 L 50.612 15.95 L 55.435 21.45 C 55.527 21.572 55.771 21.694 55.953 21.694 L 59.251 21.694 C 59.77 21.694 59.954 21.175 59.648 20.839 L 54.215 15.003 L 58.763 10.358 C 59.068 10.022 58.885 9.472 58.365 9.472 L 55.588 9.472 C 55.252 9.472 55.039 9.655 54.825 9.839 L 50.612 14.117 L 50.612 0.886 C 50.602 0.57 50.348 0.316 50.032 0.305 L 47.437 0.305 C 47.121 0.316 46.868 0.57 46.858 0.886 L 46.858 21.114 M 61.174 21.114 C 61.174 21.419 61.449 21.694 61.754 21.694 L 64.288 21.694 C 64.593 21.694 64.867 21.419 64.867 21.114 L 64.867 10.053 C 64.868 9.899 64.807 9.751 64.698 9.642 C 64.589 9.534 64.442 9.472 64.288 9.472 L 61.754 9.472 C 61.6 9.472 61.452 9.534 61.343 9.642 C 61.235 9.751 61.174 9.899 61.174 10.053 Z M 68.561 18.058 C 68.561 20.533 69.46 21.694 71.81 21.694 L 72.779 21.694 C 73.364 21.694 73.709 21.573 74.011 21.27 C 74.313 20.968 75.667 19.433 75.841 19.227 C 76.081 18.942 76.096 18.535 75.558 18.537 C 74.679 18.542 73.462 18.547 73.14 18.547 C 72.651 18.547 72.194 18.425 72.194 17.569 L 72.194 12.68 L 74.88 12.68 C 75.2 12.679 75.46 12.42 75.46 12.1 L 75.46 10.053 C 75.465 9.897 75.406 9.747 75.296 9.637 C 75.186 9.527 75.036 9.467 74.88 9.472 L 72.194 9.472 L 72.194 6.05 C 72.194 5.745 71.95 5.469 71.644 5.469 L 69.141 5.5 C 68.825 5.511 68.571 5.765 68.561 6.081 L 68.561 9.473 L 67.524 9.473 C 67.218 9.473 66.974 9.717 66.974 10.053 L 66.974 12.1 C 66.974 12.405 67.218 12.681 67.523 12.681 L 68.561 12.681 Z M 12.231 1.238 C 11.216 0.755 9.266 0 7.633 0 C 4.212 0 1.618 2.414 1.618 6.142 L 1.618 9.472 L 0.581 9.472 C 0.425 9.467 0.274 9.526 0.164 9.636 C 0.054 9.746 -0.005 9.897 0 10.053 L 0 12.1 C 0 12.405 0.245 12.681 0.581 12.681 L 1.618 12.681 L 1.618 21.113 C 1.618 21.419 1.893 21.693 2.198 21.693 L 4.274 21.693 C 4.732 21.693 5.434 21.693 5.434 21.113 L 5.434 12.681 L 10.532 12.681 L 10.532 21.113 C 10.532 21.419 10.776 21.693 11.112 21.693 L 13.646 21.693 C 13.951 21.693 14.226 21.419 14.226 21.113 L 14.226 10.053 C 14.226 9.899 14.165 9.751 14.056 9.642 C 13.947 9.533 13.8 9.472 13.646 9.472 L 5.434 9.472 L 5.434 6.172 C 5.434 4.277 6.563 3.453 7.662 3.453 C 8.319 3.453 8.88 3.614 9.472 3.836 C 9.568 3.871 9.9 4.059 10.179 3.799 C 10.715 3.298 12.195 1.764 12.294 1.629 C 12.412 1.47 12.344 1.291 12.232 1.238 M 29.397 21.113 L 29.397 15.247 C 29.397 12.069 27.84 9.166 23.963 9.166 C 21.612 9.166 20.117 10.48 19.659 10.969 L 17.553 9.471 C 17.399 9.471 17.251 9.533 17.142 9.641 C 17.033 9.75 16.972 9.898 16.972 10.052 L 16.972 21.113 C 16.972 21.419 17.247 21.693 17.553 21.693 L 19.811 21.693 C 20.392 21.693 20.575 21.541 20.575 21.113 L 20.575 14.392 C 20.88 13.568 21.857 12.468 23.445 12.468 C 24.909 12.468 25.734 13.475 25.734 15.065 L 25.734 21.114 C 25.734 21.42 25.978 21.695 26.313 21.695 L 28.816 21.695 C 29.122 21.695 29.397 21.42 29.397 21.114 M 40.172 16.714 C 39.959 17.447 39.226 18.701 37.608 18.701 C 35.99 18.701 34.83 17.296 34.83 15.584 C 34.83 13.873 36.082 12.468 37.792 12.468 C 39.317 12.468 40.172 13.17 40.172 13.17 L 40.172 16.714 Z M 43.805 21.114 L 43.805 0.887 C 43.794 0.571 43.541 0.318 43.225 0.307 L 40.63 0.307 C 40.314 0.318 40.06 0.571 40.05 0.887 L 40.05 9.715 C 39.5 9.503 38.554 9.166 37.333 9.166 C 33.701 9.166 31.289 12.008 31.289 15.582 C 31.289 19.097 33.822 21.999 37.15 21.999 C 39.714 21.999 41.149 20.166 41.149 20.166 L 43.224 21.693 C 43.53 21.693 43.805 21.419 43.805 21.113 M 63.322 2.788 C 63.322 2.788 63.61 0.883 63.639 0.632 C 63.667 0.381 63.605 -0.189 63.359 0.063 C 63.113 0.317 60.827 2.661 60.601 2.886 C 60.331 3.153 60.313 3.272 60.603 3.306 C 60.893 3.34 61.927 3.492 61.927 3.492 C 61.957 3.496 61.984 3.512 62.003 3.537 C 62.021 3.561 62.029 3.591 62.024 3.621 C 62.024 3.621 61.745 5.577 61.717 5.736 C 61.689 5.894 61.732 6.615 62.001 6.337 L 64.799 3.458 C 64.982 3.269 64.766 3.104 64.499 3.067 C 64.232 3.032 63.419 2.917 63.419 2.917 C 63.389 2.913 63.362 2.897 63.343 2.873 C 63.325 2.848 63.317 2.818 63.321 2.788" fill="#c828d2"></path></g></svg> 
